<svg width="873" height="176" viewBox="0 0 873 176" fill="none" xmlns="http://www.w3.org/2000/svg">
<g filter="url(#filter0_i_1_5)">
<path d="M46.8217 172.985L-3.31551e-06 9.34837H37.793L64.8793 123.047H66.2376L96.1204 9.34837H128.48L158.283 123.287H159.721L186.808 9.34837H224.601L177.779 172.985H144.061L112.9 65.9979H111.621L80.5398 172.985H46.8217ZM237.978 172.985V50.2575H272.016V172.985H237.978ZM255.077 34.4372C250.017 34.4372 245.675 32.7592 242.053 29.4034C238.484 25.9943 236.7 21.9194 236.7 17.1786C236.7 12.4911 238.484 8.46947 242.053 5.11365C245.675 1.70455 250.017 2.563e-06 255.077 2.563e-06C260.137 2.563e-06 264.452 1.70455 268.021 5.11365C271.643 8.46947 273.454 12.4911 273.454 17.1786C273.454 21.9194 271.643 25.9943 268.021 29.4034C264.452 32.7592 260.137 34.4372 255.077 34.4372ZM360.061 50.2575V75.8256H286.153V50.2575H360.061ZM302.932 20.8541H336.969V135.272C336.969 138.414 337.449 140.865 338.408 142.623C339.366 144.327 340.698 145.526 342.403 146.218C344.161 146.911 346.185 147.257 348.475 147.257C350.073 147.257 351.671 147.124 353.269 146.857C354.867 146.538 356.092 146.298 356.945 146.138L362.298 171.467C360.593 171.999 358.196 172.612 355.107 173.304C352.017 174.05 348.262 174.503 343.841 174.663C335.638 174.982 328.447 173.89 322.268 171.387C316.142 168.883 311.375 164.995 307.966 159.721C304.556 154.448 302.879 147.789 302.932 139.746V20.8541ZM414.407 102.033V172.985H380.37V9.34837H413.449V71.9105H414.887C417.657 64.6662 422.131 58.9933 428.31 54.8917C434.489 50.7369 442.24 48.6595 451.561 48.6595C460.084 48.6595 467.515 50.5238 473.854 54.2525C480.246 57.9279 485.199 63.228 488.715 70.1527C492.284 77.0242 494.042 85.2539 493.988 94.842V172.985H459.951V100.914C460.004 93.3505 458.086 87.4645 454.198 83.2564C450.363 79.0483 444.983 76.9443 438.058 76.9443C433.424 76.9443 429.322 77.9297 425.753 79.9006C422.238 81.8715 419.468 84.7479 417.444 88.5298C415.473 92.2585 414.461 96.7596 414.407 102.033ZM484.914 9.34837H523.666L560.979 79.8207H562.578L599.891 9.34837H638.643L578.957 115.137V172.985H544.6V115.137L484.914 9.34837ZM682.143 175.382C669.732 175.382 658.999 172.745 649.943 167.472C640.941 162.145 633.99 154.741 629.089 145.259C624.189 135.724 621.738 124.672 621.738 112.101C621.738 99.4229 624.189 88.3434 629.089 78.8619C633.99 69.3271 640.941 61.9229 649.943 56.6495C658.999 51.3228 669.732 48.6595 682.143 48.6595C694.554 48.6595 705.261 51.3228 714.263 56.6495C723.319 61.9229 730.297 69.3271 735.197 78.8619C740.098 88.3434 742.548 99.4229 742.548 112.101C742.548 124.672 740.098 135.724 735.197 145.259C730.297 154.741 723.319 162.145 714.263 167.472C705.261 172.745 694.554 175.382 682.143 175.382ZM682.303 149.015C687.949 149.015 692.663 147.417 696.445 144.221C700.227 140.971 703.077 136.55 704.995 130.957C706.966 125.364 707.951 118.999 707.951 111.861C707.951 104.723 706.966 98.3576 704.995 92.7646C703.077 87.1715 700.227 82.7504 696.445 79.5011C692.663 76.2518 687.949 74.6271 682.303 74.6271C676.603 74.6271 671.809 76.2518 667.921 79.5011C664.086 82.7504 661.183 87.1715 659.212 92.7646C657.294 98.3576 656.335 104.723 656.335 111.861C656.335 118.999 657.294 125.364 659.212 130.957C661.183 136.55 664.086 140.971 667.921 144.221C671.809 147.417 676.603 149.015 682.303 149.015ZM838.882 120.73V50.2575H872.92V172.985H840.241V150.692H838.962C836.192 157.884 831.585 163.663 825.14 168.031C818.748 172.399 810.944 174.583 801.729 174.583C793.526 174.583 786.308 172.718 780.076 168.99C773.843 165.261 768.969 159.961 765.454 153.089C761.991 146.218 760.234 137.988 760.18 128.4V50.2575H794.218V122.328C794.271 129.572 796.216 135.298 800.051 139.506C803.886 143.714 809.026 145.819 815.472 145.819C819.573 145.819 823.408 144.886 826.977 143.022C830.546 141.104 833.423 138.281 835.607 134.553C837.844 130.824 838.936 126.216 838.882 120.73Z" fill="url(#paint0_linear_1_5)"/>
</g>
<defs>
<filter id="filter0_i_1_5" x="0" y="0" width="872.92" height="176.382" filterUnits="userSpaceOnUse" color-interpolation-filters="sRGB">
<feFlood flood-opacity="0" result="BackgroundImageFix"/>
<feBlend mode="normal" in="SourceGraphic" in2="BackgroundImageFix" result="shape"/>
<feColorMatrix in="SourceAlpha" type="matrix" values="0 0 0 0 0 0 0 0 0 0 0 0 0 0 0 0 0 0 127 0" result="hardAlpha"/>
<feOffset dy="1"/>
<feGaussianBlur stdDeviation="1"/>
<feComposite in2="hardAlpha" operator="arithmetic" k2="-1" k3="1"/>
<feColorMatrix type="matrix" values="0 0 0 0 0 0 0 0 0 0 0 0 0 0 0 0 0 0 0.1 0"/>
<feBlend mode="normal" in2="shape" result="effect1_innerShadow_1_5"/>
</filter>
<linearGradient id="paint0_linear_1_5" x1="441.164" y1="-45.0153" x2="441.164" y2="341.985" gradientUnits="userSpaceOnUse">
<stop stop-color="#F4E6B0"/>
<stop offset="0.5" stop-color="#CDAA54"/>
<stop offset="1" stop-color="#8F6F28"/>
</linearGradient>
</defs>
</svg>
